<svg preserveAspectRatio="none" width="100%" height="100%" overflow="visible" style="display: block;" viewBox="0 0 11.6671 12.8333" fill="none" xmlns="http://www.w3.org/2000/svg">
<path id="Union" d="M8.45875 2.33333C9.58397 2.33333 10.4014 2.95827 10.914 3.75635C11.4181 4.54125 11.6573 5.52795 11.6671 6.40983L11.6625 6.70662C11.635 7.37476 11.4905 7.87376 11.3566 8.31022C11.2055 8.803 11.0837 9.17717 11.0837 9.69507V11.0833C11.0837 11.5475 10.8992 11.9924 10.5711 12.3206C10.2429 12.6488 9.79787 12.8333 9.33375 12.8333C8.86964 12.8333 8.42462 12.6488 8.09644 12.3206C7.80934 12.0335 7.63211 11.657 7.59229 11.2565L7.58375 11.0833V10.0215C7.58371 9.25844 7.33181 8.54129 7.03402 7.70524C6.74702 6.89948 6.41708 5.9815 6.41708 4.95833C6.41708 4.40554 6.51705 3.77853 6.81812 3.26872C7.13894 2.72559 7.68388 2.33335 8.45875 2.33333ZM8.75041 10.0215V11.0833C8.75041 11.238 8.81193 11.3864 8.92131 11.4958C9.0307 11.6052 9.17905 11.6667 9.33375 11.6667C9.48845 11.6667 9.63679 11.6052 9.74618 11.4958C9.85558 11.3864 9.91708 11.238 9.91708 11.0833V9.91667H8.74814C8.74894 9.9515 8.75041 9.98642 8.75041 10.0215ZM3.20875 0C3.98341 6.57113e-05 4.52799 0.392426 4.8488 0.935384C5.14988 1.4452 5.25041 2.0722 5.25041 2.625C5.25041 3.64822 4.91992 4.56611 4.6329 5.37191C4.33512 6.20793 4.08379 6.92513 4.08375 7.68815V8.75C4.08375 9.21408 3.89918 9.65912 3.57105 9.9873C3.24292 10.3154 2.79775 10.4999 2.33375 10.5C1.8697 10.4999 1.42401 10.3154 1.09587 9.9873C0.767871 9.65914 0.583747 9.21399 0.583747 8.75V7.36173C0.583747 6.84385 0.461984 6.46965 0.310879 5.97689C0.157938 5.47813 -0.00941837 4.89775 0.00041334 4.0765C0.0102093 3.19465 0.249455 2.2079 0.753506 1.42301C1.26605 0.625025 2.08367 8.27143e-05 3.20875 0ZM1.75041 7.58333V8.75L1.75326 8.80754C1.7665 8.94106 1.82563 9.0667 1.92131 9.16243C2.03065 9.27172 2.17916 9.33327 2.33375 9.33333C2.48833 9.33328 2.63684 9.27172 2.74618 9.16243C2.84187 9.0667 2.901 8.94107 2.91423 8.80754L2.91708 8.75V7.68815C2.91708 7.65309 2.91856 7.61817 2.91936 7.58333H1.75041ZM8.45875 3.5C8.14293 3.50001 7.95865 3.63265 7.82301 3.8623C7.66764 4.1254 7.58375 4.51948 7.58375 4.95833C7.58375 5.74923 7.83716 6.482 8.13347 7.31388C8.2925 7.76037 8.46347 8.24033 8.58578 8.75H10.0225C10.0857 8.4627 10.1678 8.20714 10.2412 7.96785C10.3843 7.5013 10.5081 7.06039 10.5004 6.4235V6.42293C10.4926 5.71835 10.2974 4.95522 9.93246 4.38696C9.57587 3.83175 9.08931 3.5 8.45875 3.5ZM3.20875 1.16667C2.57828 1.16674 2.09158 1.49847 1.73503 2.05363C1.37012 2.62188 1.17488 3.38502 1.16708 4.0896V4.09017C1.15944 4.72706 1.28321 5.16797 1.42628 5.63452C1.49965 5.8738 1.58178 6.12939 1.64503 6.41667H3.08171C3.20402 5.907 3.37499 5.42704 3.53402 4.98055C3.83032 4.14869 4.08375 3.41588 4.08375 2.625C4.08375 2.18615 3.99985 1.79207 3.84449 1.52897C3.70887 1.29938 3.52446 1.16672 3.20875 1.16667Z" fill="var(--fill-0, white)"/>
</svg>
