<svg preserveAspectRatio="none" width="100%" height="100%" overflow="visible" style="display: block;" viewBox="0 0 14.6626 13.3333" fill="none" xmlns="http://www.w3.org/2000/svg">
<path id="Union" d="M10.5716 0.00651042C11.1253 0.0375417 11.6686 0.174996 12.1719 0.411458C12.7469 0.681663 13.2554 1.07517 13.6615 1.5638C14.0675 2.05243 14.3617 2.62418 14.5221 3.23893C14.6826 3.85367 14.706 4.49635 14.5905 5.12109C14.5236 5.48315 14.1752 5.72254 13.8132 5.6556C13.4513 5.58853 13.2124 5.24083 13.2793 4.87891C13.3593 4.44636 13.3429 4.00115 13.2318 3.57552C13.1207 3.14999 12.9172 2.75425 12.6361 2.41602C12.3549 2.07773 12.0029 1.8049 11.6048 1.61784C11.2068 1.43085 10.7724 1.33386 10.3327 1.33333C9.81312 1.33339 9.4086 1.40673 9.03451 1.56966C8.65597 1.73454 8.26666 2.00938 7.80469 2.47135C7.54434 2.7317 7.12233 2.7317 6.86198 2.47135C6.40001 2.00938 6.01069 1.73454 5.63216 1.56966C5.25791 1.40666 4.85321 1.33333 4.33333 1.33333C3.53768 1.33333 2.77485 1.64963 2.21224 2.21224C1.64963 2.77485 1.33333 3.53768 1.33333 4.33333C1.33333 5.41066 1.94634 6.3055 2.76693 7.15755L7.33333 11.724L7.86198 11.1953C8.12233 10.935 8.54434 10.935 8.80469 11.1953C9.06504 11.4557 9.06504 11.8777 8.80469 12.138L7.80469 13.138C7.54434 13.3984 7.12233 13.3984 6.86198 13.138L2.20313 8.47917C1.19938 7.50885 0 6.16865 0 4.33333C0 3.18406 0.456223 2.08154 1.26888 1.26888C2.08154 0.456223 3.18406 0 4.33333 0C4.98679 0 5.58229 0.0933385 6.16471 0.347005C6.57353 0.525075 6.95452 0.774143 7.33333 1.0944C7.71215 0.774143 8.09314 0.525075 8.50195 0.347005C9.08437 0.0933385 9.67988 0 10.3333 0H10.334L10.5716 0.00651042ZM11.3333 6C11.7015 6 12 6.29848 12 6.66667V8H13.3333C13.7015 8 14 8.29848 14 8.66667C14 9.03486 13.7015 9.33333 13.3333 9.33333H12V10.6667C12 11.0349 11.7015 11.3333 11.3333 11.3333C10.9651 11.3333 10.6667 11.0349 10.6667 10.6667V9.33333H9.33333C8.96514 9.33333 8.66667 9.03486 8.66667 8.66667C8.66667 8.29848 8.96514 8 9.33333 8H10.6667V6.66667C10.6667 6.29848 10.9651 6 11.3333 6Z" fill="var(--fill-0, #285974)"/>
</svg>
