<svg preserveAspectRatio="none" width="100%" height="100%" overflow="visible" style="display: block;" viewBox="0 0 16 20" fill="none" xmlns="http://www.w3.org/2000/svg">
<path id="vector" fill-rule="evenodd" clip-rule="evenodd" d="M8 0C5.23858 0 3 2.23858 3 5V7.12602C1.27477 7.57006 0 9.13616 0 11V16C0 18.2091 1.79086 20 4 20H12C14.2091 20 16 18.2091 16 16V11C16 9.13616 14.7252 7.57006 13 7.12602V5C13 2.23858 10.7614 0 8 0ZM11 7V5C11 3.34315 9.65685 2 8 2C6.34315 2 5 3.34315 5 5V7H11ZM8 11C8.55229 11 9 11.4477 9 12V15C9 15.5523 8.55229 16 8 16C7.44772 16 7 15.5523 7 15V12C7 11.4477 7.44772 11 8 11Z" fill="var(--fill-0, black)"/>
</svg>
