<svg preserveAspectRatio="none" width="100%" height="100%" overflow="visible" style="display: block;" viewBox="0 0 16 16" fill="none" xmlns="http://www.w3.org/2000/svg">
<g id="Progress. - Circular / 3xsmall">
<path id="base" d="M16 8C16 12.4183 12.4183 16 8 16C3.58172 16 0 12.4183 0 8C0 3.58172 3.58172 0 8 0C12.4183 0 16 3.58172 16 8ZM2.4 8C2.4 11.0928 4.90721 13.6 8 13.6C11.0928 13.6 13.6 11.0928 13.6 8C13.6 4.90721 11.0928 2.4 8 2.4C4.90721 2.4 2.4 4.90721 2.4 8Z" fill="var(--fill-0, white)" fill-opacity="0.24"/>
<path id="base_2" d="M8 1.2C8 0.537258 8.54024 -0.00921593 9.19554 0.0898279C10.0631 0.220953 10.9033 0.49396 11.6823 0.897817C12.2706 1.20286 12.3865 1.96252 11.9969 2.49869V2.49869C11.6074 3.03485 10.8596 3.13977 10.2529 2.87316C9.91127 2.72304 9.55547 2.60744 9.19086 2.52808C8.54328 2.38714 8 1.86274 8 1.2V1.2Z" fill="var(--fill-0, white)"/>
</g>
</svg>
