<svg preserveAspectRatio="none" width="100%" height="100%" overflow="visible" style="display: block;" viewBox="0 0 14 13.3333" fill="none" xmlns="http://www.w3.org/2000/svg">
<path id="Union" d="M6.76624 0.00716146C6.99481 0.0416369 7.19221 0.193511 7.28252 0.411458C7.3857 0.660565 7.32864 0.947359 7.13799 1.13802C6.46736 1.80865 6.09046 2.71826 6.09046 3.66667C6.09046 4.61508 6.46736 5.52469 7.13799 6.19531C7.80861 6.86593 8.71823 7.24284 9.66663 7.24284C10.615 7.24283 11.5247 6.86593 12.1953 6.19531C12.3859 6.00466 12.6727 5.9476 12.9218 6.05078C13.1709 6.154 13.3333 6.39707 13.3333 6.66667C13.3333 7.98521 12.9421 9.27412 12.2096 10.3704C11.4771 11.4667 10.4362 12.3216 9.21806 12.8262C7.9999 13.3308 6.65905 13.4623 5.36585 13.2051C4.07273 12.9478 2.88474 12.3132 1.95244 11.3809C1.02014 10.4486 0.385483 9.26058 0.128222 7.96745C-0.129013 6.67424 0.00254357 5.33341 0.507128 4.11524C1.01171 2.89712 1.86658 1.85622 2.96286 1.1237C4.05918 0.391166 5.3481 5.02748e-07 6.66663 0L6.76624 0.00716146ZM5.24931 1.52539C4.70255 1.67612 4.18042 1.91392 3.70374 2.23242C2.82673 2.81843 2.14322 3.65118 1.73955 4.62565C1.3359 5.60014 1.22977 6.67252 1.43551 7.70703C1.6413 8.7416 2.14927 9.69228 2.89515 10.4382C3.64103 11.184 4.59171 11.692 5.62627 11.8978C6.66077 12.1035 7.73317 11.9974 8.70765 11.5938C9.68211 11.1901 10.5149 10.5066 11.1009 9.62956C11.4195 9.15276 11.6565 8.63027 11.8073 8.08334C11.146 8.4038 10.4154 8.57617 9.66663 8.57618C8.36461 8.57617 7.11595 8.05869 6.19528 7.13802C5.27461 6.21735 4.75713 4.9687 4.75713 3.66667C4.75713 2.91779 4.92876 2.18672 5.24931 1.52539ZM12 0C12.3681 1.78667e-05 12.6666 0.298488 12.6666 0.666667V1.33333H13.3333C13.7015 1.33335 14 1.63182 14 2C14 2.36818 13.7015 2.66665 13.3333 2.66667H12.6666V3.33333C12.6666 3.70151 12.3681 3.99998 12 4C11.6318 4 11.3333 3.70152 11.3333 3.33333V2.66667H10.6666C10.2984 2.66667 9.99997 2.36819 9.99997 2C9.99997 1.63181 10.2984 1.33333 10.6666 1.33333H11.3333V0.666667C11.3333 0.298477 11.6318 0 12 0Z" fill="var(--fill-0, #BEBEBE)"/>
</svg>
